# AST/ASF file generated using VICON BodyLanguage
# -----------------------------------------------
:version 1.10
:name VICON
:units
  mass 1.0
  length 0.45
  angle deg
:documentation
   .ast/.asf automatically generated from VICON data using
   VICON BodyBuilder and BodyLanguage model FoxedUp or BRILLIANT.MOD
:root
   order TX TY TZ RX RY RZ
   axis XYZ
   position 0 0 0  
   orientation 0 0 0 
:bonedata
  begin
     id 1 
     name lhipjoint
     direction 0.54267 -0.795011 0.271047 
     length 2.39899 
     axis 0 0 0  XYZ
  end
  begin
     id 2 
     name lfemur
     direction 0.34202 -0.939693 0  
     length 7.49701  
     axis 0 0 20  XYZ
    dof rx ry rz
    limits (-160.0 20.0)
           (-70.0 70.0)
           (-60.0 70.0)
  end
  begin
     id 3 
     name ltibia
     direction 0.34202 -0.939693 0   
     length 8.1668   
     axis 0 0 20   XYZ
    dof rx
    limits (-10.0 170.0)
  end
  begin
     id 4 
     name lfoot
     direction 0.0736283 -0.202292 0.976554   
     length 2.13544   
     axis -90 7.62852e-016 20   XYZ
    dof rx rz
    limits (-45.0 90.0)
           (-70.0 20.0)
  end
  begin
     id 5 
     name ltoes
     direction 1.53557e-011 -4.22024e-011 1   
     length 1.07411   
     axis -90 7.62852e-016 20   XYZ
    dof rx
    limits (-90.0 20.0)
  end
  begin
     id 6 
     name rhipjoint
     direction -0.538061 -0.797813 0.272002   
     length 2.39057  
     axis 0 0 0  XYZ 
  end
  begin
     id 7 
     name rfemur
     direction -0.34202 -0.939693 0   
     length 7.50152   
     axis 0 0 -20   XYZ
    dof rx ry rz
    limits (-160.0 20.0)
           (-70.0 70.0)
           (-70.0 60.0)
  end
  begin
     id 8 
     name rtibia
     direction -0.34202 -0.939693 0   
     length 8.05793   
     axis 0 0 -20   XYZ
    dof rx
    limits (-10.0 170.0)
 end
 begin
     id 9 
     name rfoot
     direction -0.0765195 -0.210236 0.974652   
     length 2.28698  
     axis -90 -7.62852e-016 -20   XYZ
    dof rx rz
    limits (-45.0 90.0)
           (-20.0 70.0)
  end
  begin
     id 10 
     name rtoes
     direction -1.53542e-011 -4.21847e-011 1   
     length 1.14762   
     axis -90 -7.62852e-016 -20   XYZ
    dof rx
    limits (-90.0 20.0)
  end
  begin
     id 11 
     name lowerback
     direction -0.0217239 0.996592 -0.0795765   
     length 2.08176   
     axis 0 0 0   XYZ
    dof rx ry rz
    limits (-20.0 45.0)
           (-30.0 30.0)
           (-30.0 30.0)
  end
  begin
     id 12 
     name upperback
     direction -0.00563773 0.999651 -0.0258155   
     length 2.08898   
     axis 0 0 0   XYZ
    dof rx ry rz
    limits (-20.0 45.0)
           (-30.0 30.0)
           (-30.0 30.0)
  end
  begin
     id 13 
     name thorax
     direction 0.0032706 0.999923 0.0119599   
     length 2.0968   
     axis 0 0 0   XYZ
    dof rx ry rz
    limits (-20.0 45.0)
           (-30.0 30.0)
           (-30.0 30.0)
  end
  begin
     id 14 
     name lowerneck
     direction -0.0285886 0.99568 0.0883427   
     length 1.81272   
     axis 0 0 0   XYZ
    dof rx ry rz
    limits (-20.0 45.0)
           (-30.0 30.0)
           (-30.0 30.0)
  end
  begin
     id 15 
     name upperneck
     direction 0.0807535 0.97985 -0.18268   
     length 1.82518   
     axis 0 0 0   XYZ
    dof rx ry rz
    limits (-20.0 45.0)
           (-30.0 30.0)
           (-30.0 30.0)
  end
  begin
     id 16
     name head
     direction 0.0236605 0.997053 -0.0729767  
     length 1.84443  
     axis 0 0 0   XYZ
    dof rx ry rz
    limits (-20.0 45.0)
           (-30.0 30.0)
           (-30.0 30.0)
  end
  begin
     id 17 
     name lclavicle
     direction 0.918986 0.39378 -0.0200683  
     length 3.27822  
     axis 0 0 0   XYZ
    dof ry rz
    limits (-20.0 10.0)
           (0.0 20.0)
  end
  begin
     id 18 
     name lhumerus
     direction 1 -4.4897e-011 2.09544e-027   
     length 5.5568   
     axis 180 -30 -90   XYZ
    dof rx ry rz
    limits (-60.0 90.0)
           (-90.0 90.0)
           (-90.0 90.0)
  end
  begin
     id 19
     name lradius
     direction 1 -4.48957e-011 -1.27696e-026   
     length 3.63979   
     axis 180 -30 -90   XYZ
    dof rx
    limits (-10.0 170.0)
  end
  begin
     id 20
     name lwrist
     direction 1 -4.49001e-011 -1.49001e-026   
     length 1.8199   
     axis 9.0955e-015 90 90   XYZ
    dof ry
    limits (-180.0 0.0)
 end
  begin
     id 21 
     name lhand
     direction 1 -4.48709e-011 -2.9758e-026   
     length 0.569419   
     axis 1.90115e-014 90 90   XYZ
    dof rx rz
    limits (-90.0 90.0)
           (-45.0 45.0)
  end
  begin
     id 22 
     name lfingers
     direction 1 -4.49175e-011 -5.96505e-026   
     length 0.45908   
     axis 3.80223e-014 90 90   XYZ
    dof rx
    limits (0.0 90.0)
  end
  begin
     id 23
     name lthumb
     direction 0.707107 -6.34864e-011 0.707107   
     length 0.65915   
     axis -90 45 -3.84942e-014   XYZ
    dof rx rz
    limits (-45.0 45.0)
           (-45.0 45.0)
  end
  begin
     id 24 
     name rclavicle
     direction -0.911913 0.396426 -0.106115   
     length 3.46301  
     axis 0 0 0   XYZ 
    dof ry rz
    limits (-10.0 20.0)
           (-20.0 0.0)
  end
  begin
     id 25 
     name rhumerus
     direction -1 -4.48965e-011 7.78516e-028  
     length 5.34339   
     axis 180 30 90   XYZ
    dof rx ry rz
    limits (-90.0 60.0)
           (-90.0 90.0)
           (-90.0 90.0)
  end
  begin
     id 26 
     name rradius
     direction -1 -4.48948e-011 -5.79823e-027   
     length 3.65101   
     axis 180 30 90   XYZ
    dof rx
    limits (-10.0 170.0)
  end
  begin
     id 27 
     name rwrist
     direction -1 -4.48995e-011 -1.48996e-026   
     length 1.8255   
     axis 9.0955e-015 -90 -90   XYZ
    dof ry
    limits (-180.0 0.0)
  end
  begin
     id 28
     name rhand
     direction -1 -4.48957e-011 -2.97937e-026   
     length 0.694249   
     axis 1.90115e-014 -90 -90   XYZ
    dof rx rz
    limits (-90.0 90.0)
           (-45.0 45.0)
  end
  begin
     id 29
     name rfingers
     direction -1 -4.4898e-011 -5.95943e-026   
     length 0.559721   
     axis 3.80223e-014 -90 -90   XYZ
    dof rx
    limits (0.0 90.0)
  end
  begin
     id 30
     name rthumb
     direction -0.707107 -6.34969e-011 0.707107   
     length 0.803651   
     axis -90 -45 3.84942e-014   XYZ
    dof rx rz
    limits (-45.0 45.0)
           (-45.0 45.0)
  end
:hierarchy
  begin
    root lhipjoint rhipjoint lowerback
    lhipjoint lfemur
    lfemur ltibia
    ltibia lfoot
    lfoot ltoes
    rhipjoint rfemur
    rfemur rtibia
    rtibia rfoot
    rfoot rtoes
    lowerback upperback
    upperback thorax
    thorax lowerneck lclavicle rclavicle
    lowerneck upperneck
    upperneck head
    lclavicle lhumerus
    lhumerus lradius
    lradius lwrist
    lwrist lhand lthumb
    lhand lfingers
    rclavicle rhumerus
    rhumerus rradius
    rradius rwrist
    rwrist rhand rthumb
    rhand rfingers
  end

#!OML:ASF H:\Terrain\Walking\May29\JustinRory\rory.ASF
:FULLY-SPECIFIED
:DEGREES
598
root 7.61529 18.0543 -11.4691 -352.944 62.9286 4.15825
lowerback 4.27959 -0.950162 -4.05507
upperback 0.612268 -1.43979 0.36234
thorax -1.6598 -0.691317 2.72751
lowerneck -11.1668 -6.0977 -5.43248
upperneck 15.0715 -7.77876 2.97115
head 6.76678 -3.7943 1.11586
rclavicle -1.72446e-014 4.27387e-015
rhumerus -50.5491 -26.4008 -57.7691
rradius 52.3655
rwrist -35.8053
rhand -27.8311 31.3603
rfingers 7.12502
rthumb -1.22278 1.38407
lclavicle -1.72446e-014 4.27387e-015
lhumerus -44.7505 12.7348 64.8678
lradius 49.179
lwrist 17.9469
lhand -23.0218 28.6116
lfingers 7.12502
lthumb 3.42205 58.5639
rfemur -23.3219 3.33163 14.1958
rtibia 34.8172
rfoot -11.477 -14.3353
rtoes 16.3302
lfemur -7.26605 13.1777 -14.2383
ltibia 46.1451
lfoot -6.76882 4.82455
ltoes -20.096
599
root 7.67482 18.0397 -11.4599 -354.62 62.4563 2.97519
lowerback 4.64941 -0.902157 -3.51905
upperback 0.82578 -1.35585 0.573946
thorax -1.66071 -0.654473 2.64534
lowerneck -11.215 -6.16435 -5.8029
upperneck 15.0216 -7.81466 3.05696
head 6.77998 -3.82537 1.19699
rclavicle -1.98785e-015 3.37934e-015
rhumerus -49.8206 -25.8435 -58.118
rradius 53.7741
rwrist -36.0124
rhand -28.0857 31.3688
rfingers 7.12502
rthumb -1.46864 1.39415
lclavicle -1.98785e-015 3.37934e-015
lhumerus -44.2577 12.2261 65.2567
lradius 51.303
lwrist 17.9175
lhand -21.144 27.9885
lfingers 7.12502
lthumb 5.23531 57.9038
rfemur -22.4321 3.78096 14.8014
rtibia 34.7149
rfoot -11.4288 -14.5795
rtoes 13.9292
lfemur -7.35699 13.4906 -13.2184
ltibia 47.6585
lfoot -6.83398 4.03735
ltoes -19.29
600
root 7.73567 18.0308 -11.4525 -356.36 61.8222 1.65235
lowerback 5.05653 -0.870071 -2.89643
upperback 0.901336 -1.28842 0.768487
thorax -1.82486 -0.621246 2.49965
lowerneck -10.7201 -6.15127 -6.24006
upperneck 14.6671 -7.79624 3.38969
head 6.61179 -3.82109 1.39258
rclavicle 4.08627e-014 -5.76476e-015
rhumerus -49.2819 -25.1256 -58.4838
rradius 55.2662
rwrist -36.0749
rhand -28.5357 31.4711
rfingers 7.12502
rthumb -1.90334 1.49989
lclavicle 4.08627e-014 -5.76476e-015
lhumerus -44.0036 11.7587 65.4923
lradius 53.4572
lwrist 18.0376
lhand -20.2306 28.6694
lfingers 7.12502
lthumb 6.11722 58.5611
rfemur -21.6196 4.23139 15.5191
rtibia 34.5715
rfoot -11.0148 -14.989
rtoes 9.60816
lfemur -7.45268 13.8305 -12.1543
ltibia 49.0348
lfoot -6.89524 3.56504
ltoes -19.5981
601
root 7.7954 18.0306 -11.4573 -356.857 61.0847 1.52924
lowerback 5.25295 -0.945483 -2.86885
upperback 0.970541 -1.3899 0.833319
thorax -1.85589 -0.671838 2.56078
lowerneck -10.7808 -6.07097 -6.51157
upperneck 14.954 -7.64784 3.42778
head 6.71984 -3.75975 1.4576
rclavicle 6.65307e-014 -5.96354e-016
rhumerus -48.4887 -24.3261 -58.9446
rradius 56.748
rwrist -35.9916
rhand -28.6725 31.2453
rfingers 7.12502
rthumb -2.03542 1.27526
lclavicle 6.65307e-014 -5.96354e-016
lhumerus -44.1973 11.7345 65.5069
lradius 56.0107
lwrist 17.9582
lhand -21.8812 30.2934
lfingers 7.12502
lthumb 4.52349 60.2251
rfemur -21.0731 4.63691 15.5361
rtibia 34.4446
rfoot -10.8551 -14.9219
rtoes 7.68562
lfemur -7.68907 14.1971 -11.8071
ltibia 50.2025
lfoot -7.17841 3.56907
ltoes -21.0955
602
root 7.85411 18.0329 -11.4669 -357.101 60.3982 1.70153
lowerback 5.39615 -0.917267 -2.92087
upperback 1.10534 -1.35698 0.807695
thorax -1.79859 -0.657236 2.56279
lowerneck -11.3016 -6.16928 -6.38537
upperneck 15.7651 -7.70214 2.93887
head 7.0504 -3.81069 1.25146
rclavicle 1.62755e-015 -1.98785e-016
rhumerus -47.7771 -23.9203 -59.1364
rradius 58.2406
rwrist -35.7577
rhand -28.6847 31.1964
rfingers 7.12502
rthumb -2.04716 1.22652
lclavicle 1.62755e-015 -1.98785e-016
lhumerus -44.1536 11.4525 65.6199
lradius 58.7569
lwrist 17.8082
lhand -18.4036 29.1419
lfingers 7.12502
lthumb 7.88083 58.975
rfemur -20.5412 4.96696 15.3819
rtibia 34.4001
rfoot -10.9154 -14.6004
rtoes 7.06915
lfemur -7.8692 14.3345 -11.6468
ltibia 51.1397
lfoot -7.5662 3.85069
ltoes -20.7483
603
root 7.91656 18.0336 -11.4753 -357.137 59.7057 1.95703
lowerback 5.43862 -0.780725 -2.9098
upperback 1.12939 -1.17889 0.641403
thorax -1.813 -0.568582 2.37393
lowerneck -11.4495 -6.29873 -5.78048
upperneck 16.234 -7.87201 2.28574
head 7.18382 -3.90908 0.918321
rclavicle -6.85186e-014 5.1684e-015
rhumerus -47.3646 -23.6082 -59.294
rradius 59.8889
rwrist -35.7272
rhand -28.8384 31.2819
rfingers 7.12502
rthumb -2.19562 1.31348
lclavicle -6.85186e-014 5.1684e-015
lhumerus -43.9653 10.4363 65.6814
lradius 61.5045
lwrist 17.62
lhand -14.255 27.8235
lfingers 7.12502
lthumb 11.8832 57.4663
rfemur -20.1835 5.26001 15.1256
rtibia 34.4085
rfoot -11.2866 -14.1015
rtoes 8.03111
lfemur -8.14463 14.3592 -11.6202
ltibia 51.878
lfoot -7.91347 4.31801
ltoes -21.403
604
root 7.97768 18.0301 -11.4891 -357.25 58.9684 1.97061
lowerback 5.46081 -0.658772 -2.72495
upperback 1.04821 -1.01196 0.479818
thorax -1.92568 -0.484066 2.09359
lowerneck -11.3847 -6.34285 -5.33311
upperneck 16.511 -7.97791 2.0357
head 7.23677 -3.95365 0.754891
rclavicle 1.01132e-014 1.68967e-015
rhumerus -47.0175 -22.992 -59.5765
rradius 61.75
rwrist -36.1563
rhand -28.8702 31.0292
rfingers 7.12502
rthumb -2.22634 1.06106
lclavicle 1.01132e-014 1.68967e-015
lhumerus -43.9797 9.22873 65.7089
lradius 64.2967
lwrist 17.3224
lhand -9.7441 25.3963
lfingers 7.12502
lthumb 16.2301 54.7369
rfemur -20.0121 5.50013 14.9667
rtibia 34.3939
rfoot -11.7289 -13.4693
rtoes 10.2272
lfemur -8.5112 14.5381 -11.48
ltibia 52.4483
lfoot -8.38774 4.68292
ltoes -22.3343
605
root 8.03488 18.02 -11.5038 -357.962 58.2488 1.40851
lowerback 5.49846 -0.66369 -2.52351
upperback 1.07303 -1.00403 0.638936
thorax -1.92226 -0.481225 2.14417
lowerneck -11.3456 -6.28952 -5.59194
upperneck 16.7398 -7.88617 2.17098
head 7.31807 -3.91295 0.846911
rclavicle -8.60738e-014 3.77691e-015
rhumerus -46.3154 -22.1075 -59.75
rradius 63.675
rwrist -36.5032
rhand -28.7713 30.501
rfingers 7.12502
rthumb -2.1308 0.531851
lclavicle -8.60738e-014 3.77691e-015
lhumerus -44.1457 8.84043 65.8387
lradius 67.2202
lwrist 16.9432
lhand -9.1219 25.0177
lfingers 7.12502
lthumb 16.8291 54.3084
rfemur -19.7271 5.55915 15.2444
rtibia 34.3452
rfoot -11.769 -13.1264
rtoes 9.21383
lfemur -8.7087 14.6795 -10.8979
ltibia 52.8897
lfoot -9.11739 4.73046
ltoes -19.7152
606
root 8.09342 18.0157 -11.5122 -358.206 57.5172 1.49089
lowerback 5.45981 -0.757195 -2.83236
upperback 1.21192 -1.13952 0.785299
thorax -1.74087 -0.551208 2.47559
lowerneck -11.5102 -6.17479 -6.01151
upperneck 17.0008 -7.67466 2.33436
head 7.44865 -3.82127 0.979908
rclavicle -1.37472e-013 9.54166e-015
rhumerus -45.418 -21.4337 -59.8838
rradius 65.6022
rwrist -35.9582
rhand -28.6393 30.552
rfingers 7.12502
rthumb -2.00331 0.581671
lclavicle -1.37472e-013 9.54166e-015
lhumerus -44.406 8.85403 65.8633
lradius 70.379
lwrist 16.8696
lhand -12.0597 27.1626
lfingers 7.12502
lthumb 13.9995 56.6712
rfemur -19.325 5.56484 15.1566
rtibia 34.2716
rfoot -12.0531 -12.6966
rtoes 8.42129
lfemur -8.75754 14.4164 -10.7291
ltibia 53.1655
lfoot -10.0769 5.01177
ltoes -15.3942
607
root 8.14787 18.0183 -11.5264 -357.883 56.8288 2.16178
lowerback 5.5137 -0.800091 -3.29254
upperback 1.27624 -1.22499 0.688472
thorax -1.69138 -0.593669 2.64041
lowerneck -11.6549 -6.08015 -5.93641
upperneck 17.2157 -7.54612 2.28863
head 7.53399 -3.7575 0.960127
rclavicle -5.19325e-015 2.78299e-015
rhumerus -44.9154 -21.0797 -59.9822
rradius 67.7658
rwrist -34.776
rhand -28.4003 31.2576
rfingers 7.12502
rthumb -1.7725 1.28523
lclavicle -5.19325e-015 2.78299e-015
lhumerus -44.5646 8.50366 65.7394
lradius 73.5557
lwrist 17.1249
lhand -13.678 28.2925
lfingers 7.12502
lthumb 12.4396 57.9023
rfemur -18.993 5.67578 14.6492
rtibia 34.1216
rfoot -12.3909 -12.1909
rtoes 8.96871
lfemur -8.92593 14.1054 -10.9813
ltibia 53.2758
lfoot -10.8609 5.76811
ltoes -15.3892
608
root 8.19951 18.0149 -11.5393 -358.213 56.3095 1.98962
lowerback 5.6116 -0.856166 -3.31406
upperback 1.27937 -1.30284 0.747505
thorax -1.73546 -0.631576 2.72059
lowerneck -11.7219 -6.02208 -5.86729
upperneck 17.4315 -7.45138 2.14506
head 7.60434 -3.71979 0.90828
rclavicle -4.32357e-015 -1.21259e-014
rhumerus -44.6881 -20.6025 -59.9184
rradius 70.276
rwrist -33.7042
rhand -28.0738 32.0956
rfingers 7.12502
rthumb -1.45724 2.12081
lclavicle -4.32357e-015 -1.21259e-014
lhumerus -44.6682 8.08101 65.5853
lradius 76.713
lwrist 17.4365
lhand -9.94166 27.3792
lfingers 7.12502
lthumb 16.0398 56.7353
rfemur -18.6685 5.92842 14.6576
rtibia 33.9098
rfoot -12.446 -12.0658
rtoes 8.58881
lfemur -9.1652 14.1811 -10.5482
ltibia 53.2238
lfoot -11.1202 6.1044
ltoes -16.6009
609
root 8.25778 18.0099 -11.5432 -359.615 55.7553 0.647752
lowerback 5.75554 -0.674054 -2.74246
upperback 1.28171 -1.02552 0.990151
thorax -1.8391 -0.493246 2.63326
lowerneck -11.7936 -6.22342 -5.88487
upperneck 17.8533 -7.70557 2.04517
head 7.7639 -3.84876 0.843197
rclavicle -1.70458e-014 -1.39149e-015
rhumerus -44.9161 -20.6349 -59.3702
rradius 72.8544
rwrist -32.364
rhand -27.6648 33.2568
rfingers 7.12502
rthumb -1.06215 3.27973
lclavicle -1.70458e-014 -1.39149e-015
lhumerus -44.5993 6.78939 65.8257
lradius 80.0147
lwrist 18.323
lhand -5.42364 26.7893
lfingers 7.12502
lthumb 20.3863 55.7392
rfemur -18.1778 6.4132 15.3954
rtibia 33.6962
rfoot -12.6057 -12.0014
rtoes 9.23645
lfemur -9.17117 14.2094 -9.30359
ltibia 52.9736
lfoot -11.5009 6.05128
ltoes -14.5295
610
root 8.32368 18.0077 -11.5494 -360.747 55.1313 -0.183677
lowerback 5.95776 -0.466992 -2.37929
upperback 1.35246 -0.728191 1.10795
thorax -1.90176 -0.345542 2.53152
lowerneck -11.9067 -6.44309 -5.91417
upperneck 18.2838 -8.01047 2.09004
head 7.94288 -3.9883 0.819081
rclavicle 9.51682e-015 -4.37326e-015
rhumerus -45.0435 -20.6116 -58.9551
rradius 75.4398
rwrist -30.6967
rhand -27.1601 34.1716
rfingers 7.12502
rthumb -0.574697 4.19267
lclavicle 9.51682e-015 -4.37326e-015
lhumerus -44.3197 5.50563 65.9839
lradius 83.2193
lwrist 19.7142
lhand -5.6823 28.1502
lfingers 7.12502
lthumb 20.1377 57.1265
rfemur -17.4902 6.89495 15.8393
rtibia 33.4727
rfoot -12.8774 -11.7927
rtoes 10.2418
lfemur -8.86457 13.921 -8.45225
ltibia 52.4951
lfoot -12.2096 6.43644
ltoes -15.18
611
root 8.39658 18.0104 -11.5731 -360.05 54.6352 1.03918
lowerback 5.97654 -0.641637 -3.00009
upperback 1.39627 -1.00354 0.911188
thorax -1.84257 -0.482184 2.69782
lowerneck -12.0106 -6.33126 -6.17845
upperneck 18.6052 -7.82713 2.21319
head 8.07792 -3.90574 0.914722
rclavicle 1.33422e-013 -9.14409e-015
rhumerus -44.5032 -19.5733 -59.1927
rradius 78.1972
rwrist -29.1104
rhand -26.5164 34.4792
rfingers 7.12502
rthumb 0.046979 4.49942
lclavicle 1.33422e-013 -9.14409e-015
lhumerus -44.2491 5.46271 65.5172
lradius 86.155
lwrist 21.0467
lhand -10.0842 28.3832
lfingers 7.12502
lthumb 15.9025 57.7503
rfemur -16.965 6.77534 14.9028
rtibia 33.2671
rfoot -13.0199 -11.2541
rtoes 9.54247
lfemur -8.62876 13.393 -9.09759
ltibia 51.755
lfoot -12.8798 7.16624
ltoes -18.1149
612
root 8.4669 18.0125 -11.6024 -359.433 54.1231 2.02182
lowerback 5.96902 -0.754227 -3.38934
upperback 1.33903 -1.18437 0.653898
thorax -1.88227 -0.569855 2.66468
lowerneck -11.6217 -6.24166 -6.0411
upperneck 18.4943 -7.73058 2.10287
head 7.95647 -3.86546 0.881434
rclavicle 6.95746e-016 -4.37326e-015
rhumerus -44.2149 -18.7719 -59.2882
rradius 80.9507
rwrist -27.1706
rhand -25.5533 35.2688
rfingers 7.12502
rthumb 0.97721 5.29125
lclavicle 6.95746e-016 -4.37326e-015
lhumerus -44.2192 4.92282 65.0875
lradius 89.1714
lwrist 22.3669
lhand -20.4198 26.3406
lfingers 7.12502
lthumb 5.93457 56.2375
rfemur -16.6557 6.33454 14.076
rtibia 33.1366
rfoot -12.7993 -10.4717
rtoes 7.25706
lfemur -8.53335 12.7282 -9.65208
ltibia 50.8297
lfoot -13.4064 7.69594
ltoes -17.4389
